# xmcd
#
# Track frame offsets:
#	150
#	18602
#	22345
#	38877
#	57512
#	73432
#	91945
#	111880
#	128905
#	147530
#	168380
#	188214
#
# Disc length: 2656 seconds
#
# Revision: 1
# Processed by: cddbd v1.5.2PL0 Copyright (c) Steve Scherf et al.
# Submitted via: MusicManager 7.3.0.0 
#
DISCID=ba0a5e0c
DTITLE=Killers - Sam´s Town
DYEAR=06
DGENRE=
TTITLE0=Sam´s Town
TTITLE1=Enterlude
TTITLE2=When You Were Young
TTITLE3=Bling (Confession Of A King)
TTITLE4=For Reasons Unknown
TTITLE5=Read My Mind
TTITLE6=Uncle Jonny
TTITLE7=Bones
TTITLE8=My List
TTITLE9=This River Is Wild
TTITLE10=Why Do I Keep Counting?
TTITLE11=Exitude
EXTD=
EXTT0=
EXTT1=
EXTT2=
EXTT3=
EXTT4=
EXTT5=
EXTT6=
EXTT7=
EXTT8=
EXTT9=
EXTT10=
EXTT11=
PLAYORDER=
